<mxfile host="app.diagrams.net" modified="2022-12-02T08:33:13.850Z" agent="5.0 (Windows NT 10.0; Win64; x64) AppleWebKit/537.36 (KHTML, like Gecko) Chrome/106.0.0.0 Safari/537.36" etag="uF5iev1Doiqpj307KuE2" version="20.6.0" type="github" pages="5">
  <diagram id="IbwOnXphDGrgbKoo0UGc" name="类加载过程">
    <mxGraphModel dx="1250" dy="622" grid="0" gridSize="10" guides="1" tooltips="1" connect="1" arrows="1" fold="1" page="0" pageScale="1" pageWidth="827" pageHeight="1169" background="none" math="0" shadow="0">
      <root>
        <mxCell id="0" />
        <mxCell id="1" parent="0" />
        <mxCell id="OvryeKxJEPevqcvtAfWF-4" value="" style="edgeStyle=orthogonalEdgeStyle;rounded=0;orthogonalLoop=1;jettySize=auto;html=1;fontFamily=Ubuntu, Misans;sketch=1;" parent="1" source="OvryeKxJEPevqcvtAfWF-2" target="OvryeKxJEPevqcvtAfWF-3" edge="1">
          <mxGeometry relative="1" as="geometry" />
        </mxCell>
        <mxCell id="OvryeKxJEPevqcvtAfWF-2" value="class" style="rounded=0;whiteSpace=wrap;html=1;fontFamily=Ubuntu, Misans;fillColor=#f5f5f5;strokeColor=#666666;fontColor=#333333;sketch=1;" parent="1" vertex="1">
          <mxGeometry x="12" y="312" width="120" height="60" as="geometry" />
        </mxCell>
        <mxCell id="OvryeKxJEPevqcvtAfWF-6" value="" style="edgeStyle=orthogonalEdgeStyle;rounded=0;orthogonalLoop=1;jettySize=auto;html=1;fontFamily=Ubuntu, Misans;sketch=1;" parent="1" source="OvryeKxJEPevqcvtAfWF-3" target="OvryeKxJEPevqcvtAfWF-5" edge="1">
          <mxGeometry relative="1" as="geometry" />
        </mxCell>
        <mxCell id="OvryeKxJEPevqcvtAfWF-3" value="加载" style="rounded=0;whiteSpace=wrap;html=1;fontFamily=Ubuntu, Misans;fillColor=#dae8fc;strokeColor=#6c8ebf;sketch=1;" parent="1" vertex="1">
          <mxGeometry x="12" y="172" width="120" height="60" as="geometry" />
        </mxCell>
        <mxCell id="OvryeKxJEPevqcvtAfWF-11" value="" style="edgeStyle=orthogonalEdgeStyle;rounded=0;orthogonalLoop=1;jettySize=auto;html=1;fontFamily=Ubuntu, Misans;sketch=1;" parent="1" source="OvryeKxJEPevqcvtAfWF-5" target="OvryeKxJEPevqcvtAfWF-10" edge="1">
          <mxGeometry relative="1" as="geometry" />
        </mxCell>
        <mxCell id="OvryeKxJEPevqcvtAfWF-5" value="" style="whiteSpace=wrap;html=1;rounded=0;fontFamily=Ubuntu, Misans;fillColor=#e1d5e7;strokeColor=#9673a6;shadow=0;sketch=1;" parent="1" vertex="1">
          <mxGeometry x="210" y="138.5" width="368" height="127" as="geometry" />
        </mxCell>
        <mxCell id="OvryeKxJEPevqcvtAfWF-7" value="验证" style="rounded=0;whiteSpace=wrap;html=1;fontFamily=Ubuntu, Misans;fillColor=#d5e8d4;strokeColor=#82b366;sketch=1;" parent="1" vertex="1">
          <mxGeometry x="224.5" y="157.5" width="101" height="60" as="geometry" />
        </mxCell>
        <mxCell id="OvryeKxJEPevqcvtAfWF-8" value="准备" style="rounded=0;whiteSpace=wrap;html=1;fontFamily=Ubuntu, Misans;fillColor=#d5e8d4;strokeColor=#82b366;sketch=1;" parent="1" vertex="1">
          <mxGeometry x="345" y="157.5" width="101" height="60" as="geometry" />
        </mxCell>
        <mxCell id="OvryeKxJEPevqcvtAfWF-9" value="解析" style="rounded=0;whiteSpace=wrap;html=1;fontFamily=Ubuntu, Misans;fillColor=#d5e8d4;strokeColor=#82b366;sketch=1;" parent="1" vertex="1">
          <mxGeometry x="462.5" y="156" width="101" height="60" as="geometry" />
        </mxCell>
        <mxCell id="OvryeKxJEPevqcvtAfWF-14" value="" style="edgeStyle=orthogonalEdgeStyle;rounded=0;sketch=1;orthogonalLoop=1;jettySize=auto;html=1;fontFamily=Ubuntu, Misans;" parent="1" source="OvryeKxJEPevqcvtAfWF-10" target="OvryeKxJEPevqcvtAfWF-13" edge="1">
          <mxGeometry relative="1" as="geometry" />
        </mxCell>
        <mxCell id="OvryeKxJEPevqcvtAfWF-10" value="初始化" style="whiteSpace=wrap;html=1;rounded=0;fontFamily=Ubuntu, Misans;fillColor=#fff2cc;strokeColor=#d6b656;shadow=0;sketch=1;" parent="1" vertex="1">
          <mxGeometry x="637" y="172" width="120" height="60" as="geometry" />
        </mxCell>
        <mxCell id="OvryeKxJEPevqcvtAfWF-12" value="连接" style="text;html=1;align=center;verticalAlign=middle;resizable=0;points=[];autosize=1;fontFamily=Ubuntu, Misans;rounded=0;sketch=1;" parent="1" vertex="1">
          <mxGeometry x="362" y="230" width="42" height="26" as="geometry" />
        </mxCell>
        <mxCell id="OvryeKxJEPevqcvtAfWF-13" value="GC" style="whiteSpace=wrap;html=1;rounded=0;fontFamily=Ubuntu, Misans;fillColor=#f8cecc;strokeColor=#b85450;sketch=1;" parent="1" vertex="1">
          <mxGeometry x="637" y="312" width="120" height="60" as="geometry" />
        </mxCell>
        <mxCell id="OvryeKxJEPevqcvtAfWF-27" value="" style="edgeStyle=orthogonalEdgeStyle;rounded=0;sketch=1;orthogonalLoop=1;jettySize=auto;html=1;fontFamily=Ubuntu, Misans;" parent="1" source="OvryeKxJEPevqcvtAfWF-25" target="OvryeKxJEPevqcvtAfWF-26" edge="1">
          <mxGeometry relative="1" as="geometry" />
        </mxCell>
        <mxCell id="OvryeKxJEPevqcvtAfWF-25" value="class文件" style="ellipse;whiteSpace=wrap;html=1;aspect=fixed;shadow=0;sketch=1;fontFamily=Ubuntu, Misans;fillColor=#ffe6cc;strokeColor=#d79b00;rounded=0;" parent="1" vertex="1">
          <mxGeometry x="28" y="668" width="80" height="80" as="geometry" />
        </mxCell>
        <mxCell id="OvryeKxJEPevqcvtAfWF-26" value="class文件的二进制内容" style="whiteSpace=wrap;html=1;shadow=0;fontFamily=Ubuntu, Misans;sketch=1;fillColor=#dae8fc;strokeColor=#6c8ebf;rounded=0;" parent="1" vertex="1">
          <mxGeometry x="8" y="518" width="120" height="60" as="geometry" />
        </mxCell>
        <mxCell id="OvryeKxJEPevqcvtAfWF-28" value="加载进内存，生成了两块内存区域" style="text;html=1;align=center;verticalAlign=middle;resizable=0;points=[];autosize=1;fontFamily=Ubuntu, Misans;rounded=0;sketch=1;" parent="1" vertex="1">
          <mxGeometry x="76" y="621" width="198" height="26" as="geometry" />
        </mxCell>
        <mxCell id="OvryeKxJEPevqcvtAfWF-30" style="edgeStyle=orthogonalEdgeStyle;rounded=0;sketch=1;orthogonalLoop=1;jettySize=auto;html=1;entryX=1;entryY=0.5;entryDx=0;entryDy=0;fontFamily=Ubuntu, Misans;" parent="1" source="OvryeKxJEPevqcvtAfWF-29" target="OvryeKxJEPevqcvtAfWF-26" edge="1">
          <mxGeometry relative="1" as="geometry" />
        </mxCell>
        <mxCell id="OvryeKxJEPevqcvtAfWF-32" style="edgeStyle=orthogonalEdgeStyle;rounded=0;sketch=1;orthogonalLoop=1;jettySize=auto;html=1;fontFamily=Ubuntu, Misans;startArrow=classic;startFill=1;endArrow=none;endFill=0;" parent="1" source="OvryeKxJEPevqcvtAfWF-29" edge="1">
          <mxGeometry relative="1" as="geometry">
            <mxPoint x="409.99993896484375" y="548" as="targetPoint" />
          </mxGeometry>
        </mxCell>
        <mxCell id="OvryeKxJEPevqcvtAfWF-29" value="Class类对象" style="whiteSpace=wrap;html=1;shadow=0;fontFamily=Ubuntu, Misans;sketch=1;fillColor=#dae8fc;strokeColor=#6c8ebf;rounded=0;" parent="1" vertex="1">
          <mxGeometry x="214" y="518" width="120" height="60" as="geometry" />
        </mxCell>
        <mxCell id="OvryeKxJEPevqcvtAfWF-31" value="指向" style="text;html=1;align=center;verticalAlign=middle;resizable=0;points=[];autosize=1;fontFamily=Ubuntu, Misans;rounded=0;sketch=1;" parent="1" vertex="1">
          <mxGeometry x="142" y="521" width="42" height="26" as="geometry" />
        </mxCell>
        <mxCell id="OvryeKxJEPevqcvtAfWF-33" value="其它代码通过Class类对象访问class文件&lt;br&gt;Class类对象相当于JVM提供的对class文件的抽象" style="text;html=1;align=center;verticalAlign=middle;resizable=0;points=[];autosize=1;fontFamily=Ubuntu, Misans;rounded=0;sketch=1;" parent="1" vertex="1">
          <mxGeometry x="409" y="530" width="276" height="41" as="geometry" />
        </mxCell>
      </root>
    </mxGraphModel>
  </diagram>
  <diagram id="DkzvbZR4lAQHloC84OdA" name="双亲委派">
    <mxGraphModel dx="1716" dy="655" grid="0" gridSize="10" guides="1" tooltips="1" connect="1" arrows="1" fold="1" page="0" pageScale="1" pageWidth="827" pageHeight="1169" math="0" shadow="0">
      <root>
        <mxCell id="adV5CvsAMjW0xJcDhVmY-0" />
        <mxCell id="adV5CvsAMjW0xJcDhVmY-1" parent="adV5CvsAMjW0xJcDhVmY-0" />
        <mxCell id="5gaNpuWi-VXWMFemkh9Q-0" value="" style="edgeStyle=orthogonalEdgeStyle;rounded=0;sketch=1;orthogonalLoop=1;jettySize=auto;html=1;fontFamily=Ubuntu, Misans;" edge="1" parent="adV5CvsAMjW0xJcDhVmY-1" source="5gaNpuWi-VXWMFemkh9Q-2" target="5gaNpuWi-VXWMFemkh9Q-5">
          <mxGeometry relative="1" as="geometry" />
        </mxCell>
        <mxCell id="5gaNpuWi-VXWMFemkh9Q-1" style="edgeStyle=orthogonalEdgeStyle;rounded=0;sketch=1;orthogonalLoop=1;jettySize=auto;html=1;dashed=1;startArrow=none;startFill=0;endArrow=classic;endFill=1;fontFamily=Ubuntu, Misans;" edge="1" parent="adV5CvsAMjW0xJcDhVmY-1" source="5gaNpuWi-VXWMFemkh9Q-2">
          <mxGeometry relative="1" as="geometry">
            <mxPoint x="476.39996337890625" y="897" as="targetPoint" />
          </mxGeometry>
        </mxCell>
        <mxCell id="5gaNpuWi-VXWMFemkh9Q-2" value="自定义类加载器" style="rounded=0;whiteSpace=wrap;html=1;shadow=0;sketch=1;fontFamily=Ubuntu, Misans;fillColor=#dae8fc;strokeColor=#6c8ebf;" vertex="1" parent="adV5CvsAMjW0xJcDhVmY-1">
          <mxGeometry x="160" y="867" width="120" height="60" as="geometry" />
        </mxCell>
        <mxCell id="5gaNpuWi-VXWMFemkh9Q-3" value="" style="edgeStyle=orthogonalEdgeStyle;rounded=0;sketch=1;orthogonalLoop=1;jettySize=auto;html=1;fontFamily=Ubuntu, Misans;" edge="1" parent="adV5CvsAMjW0xJcDhVmY-1" source="5gaNpuWi-VXWMFemkh9Q-5" target="5gaNpuWi-VXWMFemkh9Q-8">
          <mxGeometry relative="1" as="geometry" />
        </mxCell>
        <mxCell id="5gaNpuWi-VXWMFemkh9Q-4" style="edgeStyle=orthogonalEdgeStyle;rounded=0;sketch=1;orthogonalLoop=1;jettySize=auto;html=1;dashed=1;startArrow=none;startFill=0;endArrow=classic;endFill=1;fontFamily=Ubuntu, Misans;" edge="1" parent="adV5CvsAMjW0xJcDhVmY-1" source="5gaNpuWi-VXWMFemkh9Q-5">
          <mxGeometry relative="1" as="geometry">
            <mxPoint x="477.99993896484375" y="788" as="targetPoint" />
          </mxGeometry>
        </mxCell>
        <mxCell id="5gaNpuWi-VXWMFemkh9Q-5" value="应用程序类加载器" style="whiteSpace=wrap;html=1;rounded=0;shadow=0;fontFamily=Ubuntu, Misans;sketch=1;fillColor=#d5e8d4;strokeColor=#82b366;" vertex="1" parent="adV5CvsAMjW0xJcDhVmY-1">
          <mxGeometry x="160" y="758" width="120" height="60" as="geometry" />
        </mxCell>
        <mxCell id="5gaNpuWi-VXWMFemkh9Q-6" value="" style="edgeStyle=orthogonalEdgeStyle;rounded=0;sketch=1;orthogonalLoop=1;jettySize=auto;html=1;fontFamily=Ubuntu, Misans;" edge="1" parent="adV5CvsAMjW0xJcDhVmY-1" source="5gaNpuWi-VXWMFemkh9Q-8" target="5gaNpuWi-VXWMFemkh9Q-10">
          <mxGeometry relative="1" as="geometry" />
        </mxCell>
        <mxCell id="5gaNpuWi-VXWMFemkh9Q-7" style="edgeStyle=orthogonalEdgeStyle;rounded=0;sketch=1;orthogonalLoop=1;jettySize=auto;html=1;dashed=1;startArrow=none;startFill=0;endArrow=classic;endFill=1;fontFamily=Ubuntu, Misans;" edge="1" parent="adV5CvsAMjW0xJcDhVmY-1" source="5gaNpuWi-VXWMFemkh9Q-8">
          <mxGeometry relative="1" as="geometry">
            <mxPoint x="478.79998779296875" y="679" as="targetPoint" />
          </mxGeometry>
        </mxCell>
        <mxCell id="5gaNpuWi-VXWMFemkh9Q-8" value="扩展类加载器" style="whiteSpace=wrap;html=1;rounded=0;shadow=0;fontFamily=Ubuntu, Misans;sketch=1;fillColor=#ffe6cc;strokeColor=#d79b00;" vertex="1" parent="adV5CvsAMjW0xJcDhVmY-1">
          <mxGeometry x="160" y="649" width="120" height="60" as="geometry" />
        </mxCell>
        <mxCell id="5gaNpuWi-VXWMFemkh9Q-9" style="edgeStyle=orthogonalEdgeStyle;rounded=0;sketch=1;orthogonalLoop=1;jettySize=auto;html=1;startArrow=none;startFill=0;endArrow=classic;endFill=1;fontFamily=Ubuntu, Misans;dashed=1;" edge="1" parent="adV5CvsAMjW0xJcDhVmY-1" source="5gaNpuWi-VXWMFemkh9Q-10">
          <mxGeometry relative="1" as="geometry">
            <mxPoint x="480" y="571" as="targetPoint" />
          </mxGeometry>
        </mxCell>
        <mxCell id="5gaNpuWi-VXWMFemkh9Q-10" value="启动类加载器" style="whiteSpace=wrap;html=1;rounded=0;shadow=0;fontFamily=Ubuntu, Misans;sketch=1;fillColor=#fff2cc;strokeColor=#d6b656;" vertex="1" parent="adV5CvsAMjW0xJcDhVmY-1">
          <mxGeometry x="160" y="541" width="120" height="60" as="geometry" />
        </mxCell>
        <mxCell id="5gaNpuWi-VXWMFemkh9Q-11" value="" style="shape=flexArrow;endArrow=classic;html=1;fontFamily=Ubuntu, Misans;width=16;endSize=6.17;fillColor=#f5f5f5;strokeColor=#666666;rounded=0;sketch=1;" edge="1" parent="adV5CvsAMjW0xJcDhVmY-1">
          <mxGeometry width="50" height="50" relative="1" as="geometry">
            <mxPoint x="116" y="937" as="sourcePoint" />
            <mxPoint x="116" y="526" as="targetPoint" />
            <Array as="points" />
          </mxGeometry>
        </mxCell>
        <mxCell id="5gaNpuWi-VXWMFemkh9Q-12" value="自底向上检测&lt;br&gt;类是否已经加载了" style="text;html=1;align=center;verticalAlign=middle;resizable=0;points=[];autosize=1;fontFamily=Ubuntu, Misans;rounded=0;sketch=1;" vertex="1" parent="adV5CvsAMjW0xJcDhVmY-1">
          <mxGeometry x="-15" y="899" width="114" height="41" as="geometry" />
        </mxCell>
        <mxCell id="5gaNpuWi-VXWMFemkh9Q-13" value="JVM是按需动态加载&lt;br&gt;采用双亲委派机制" style="text;html=1;align=center;verticalAlign=middle;resizable=0;points=[];autosize=1;fontFamily=Ubuntu, Misans;rounded=0;sketch=1;" vertex="1" parent="adV5CvsAMjW0xJcDhVmY-1">
          <mxGeometry x="-35" y="536" width="126" height="41" as="geometry" />
        </mxCell>
        <mxCell id="5gaNpuWi-VXWMFemkh9Q-14" value="" style="shape=flexArrow;endArrow=classic;html=1;fontFamily=Ubuntu, Misans;width=16;endSize=6.17;fillColor=#f5f5f5;strokeColor=#666666;rounded=0;sketch=1;" edge="1" parent="adV5CvsAMjW0xJcDhVmY-1">
          <mxGeometry width="50" height="50" relative="1" as="geometry">
            <mxPoint x="336" y="524" as="sourcePoint" />
            <mxPoint x="336" y="935" as="targetPoint" />
            <Array as="points" />
          </mxGeometry>
        </mxCell>
        <mxCell id="5gaNpuWi-VXWMFemkh9Q-15" value="自顶向下&lt;br&gt;进行实际查找和加载" style="text;html=1;align=center;verticalAlign=middle;resizable=0;points=[];autosize=1;fontFamily=Ubuntu, Misans;rounded=0;sketch=1;" vertex="1" parent="adV5CvsAMjW0xJcDhVmY-1">
          <mxGeometry x="350" y="505" width="126" height="41" as="geometry" />
        </mxCell>
        <mxCell id="5gaNpuWi-VXWMFemkh9Q-16" value="加载lib/rt.jar charset.jar等核心类，C++实现" style="text;html=1;align=center;verticalAlign=middle;resizable=0;points=[];autosize=1;fontFamily=Ubuntu, Misans;rounded=0;sketch=1;" vertex="1" parent="adV5CvsAMjW0xJcDhVmY-1">
          <mxGeometry x="481" y="555" width="251" height="26" as="geometry" />
        </mxCell>
        <mxCell id="5gaNpuWi-VXWMFemkh9Q-17" value="加载扩展jar包&lt;br&gt;jre/lib/ext/*.jar&lt;br&gt;或则由-Djava.ext.dirs指定" style="text;html=1;align=center;verticalAlign=middle;resizable=0;points=[];autosize=1;fontFamily=Ubuntu, Misans;rounded=0;sketch=1;" vertex="1" parent="adV5CvsAMjW0xJcDhVmY-1">
          <mxGeometry x="470" y="647" width="155" height="55" as="geometry" />
        </mxCell>
        <mxCell id="5gaNpuWi-VXWMFemkh9Q-18" value="加载classpath指定内容" style="text;html=1;align=center;verticalAlign=middle;resizable=0;points=[];autosize=1;fontFamily=Ubuntu, Misans;rounded=0;sketch=1;" vertex="1" parent="adV5CvsAMjW0xJcDhVmY-1">
          <mxGeometry x="484" y="775" width="141" height="26" as="geometry" />
        </mxCell>
        <mxCell id="5gaNpuWi-VXWMFemkh9Q-19" value="自定义ClassLoader" style="text;html=1;align=center;verticalAlign=middle;resizable=0;points=[];autosize=1;fontFamily=Ubuntu, Misans;rounded=0;sketch=1;" vertex="1" parent="adV5CvsAMjW0xJcDhVmY-1">
          <mxGeometry x="478" y="882" width="120" height="26" as="geometry" />
        </mxCell>
        <mxCell id="NCSR_X6Gh6KwO2x8WgRi-0" value="" style="edgeStyle=orthogonalEdgeStyle;rounded=0;sketch=1;orthogonalLoop=1;jettySize=auto;html=1;startArrow=none;startFill=0;endArrow=classic;endFill=1;fontFamily=Ubuntu, Misans;fillColor=#e51400;strokeColor=#B20000;" edge="1" parent="adV5CvsAMjW0xJcDhVmY-1" source="NCSR_X6Gh6KwO2x8WgRi-1" target="NCSR_X6Gh6KwO2x8WgRi-4">
          <mxGeometry relative="1" as="geometry" />
        </mxCell>
        <mxCell id="NCSR_X6Gh6KwO2x8WgRi-1" value=".class" style="ellipse;whiteSpace=wrap;html=1;aspect=fixed;shadow=0;sketch=1;fontFamily=Ubuntu, Misans;fillColor=#dae8fc;strokeColor=#6c8ebf;rounded=0;" vertex="1" parent="adV5CvsAMjW0xJcDhVmY-1">
          <mxGeometry x="1228" y="444" width="80" height="80" as="geometry" />
        </mxCell>
        <mxCell id="NCSR_X6Gh6KwO2x8WgRi-2" value="" style="edgeStyle=orthogonalEdgeStyle;rounded=0;sketch=1;orthogonalLoop=1;jettySize=auto;html=1;startArrow=none;startFill=0;endArrow=classic;endFill=1;fontFamily=Ubuntu, Misans;fillColor=#e51400;strokeColor=#B20000;" edge="1" parent="adV5CvsAMjW0xJcDhVmY-1" source="NCSR_X6Gh6KwO2x8WgRi-4" target="NCSR_X6Gh6KwO2x8WgRi-12">
          <mxGeometry relative="1" as="geometry" />
        </mxCell>
        <mxCell id="NCSR_X6Gh6KwO2x8WgRi-3" value="" style="edgeStyle=orthogonalEdgeStyle;rounded=0;sketch=1;orthogonalLoop=1;jettySize=auto;html=1;startArrow=none;startFill=0;endArrow=classic;endFill=1;fontFamily=Ubuntu, Misans;fillColor=#1ba1e2;strokeColor=#006EAF;" edge="1" parent="adV5CvsAMjW0xJcDhVmY-1" source="NCSR_X6Gh6KwO2x8WgRi-4" target="NCSR_X6Gh6KwO2x8WgRi-52">
          <mxGeometry relative="1" as="geometry" />
        </mxCell>
        <mxCell id="NCSR_X6Gh6KwO2x8WgRi-4" value="自定义类加载器" style="whiteSpace=wrap;html=1;shadow=0;fontFamily=Ubuntu, Misans;sketch=1;fillColor=#d5e8d4;strokeColor=#82b366;rounded=0;" vertex="1" parent="adV5CvsAMjW0xJcDhVmY-1">
          <mxGeometry x="1225" y="573" width="86" height="69" as="geometry" />
        </mxCell>
        <mxCell id="NCSR_X6Gh6KwO2x8WgRi-5" style="edgeStyle=orthogonalEdgeStyle;rounded=0;sketch=1;orthogonalLoop=1;jettySize=auto;html=1;entryX=0;entryY=0.5;entryDx=0;entryDy=0;startArrow=none;startFill=0;endArrow=classic;endFill=1;fontFamily=Ubuntu, Misans;fillColor=#e51400;strokeColor=#B20000;" edge="1" parent="adV5CvsAMjW0xJcDhVmY-1" source="NCSR_X6Gh6KwO2x8WgRi-12" target="NCSR_X6Gh6KwO2x8WgRi-13">
          <mxGeometry relative="1" as="geometry" />
        </mxCell>
        <mxCell id="NCSR_X6Gh6KwO2x8WgRi-6" value="Y" style="edgeLabel;html=1;align=center;verticalAlign=middle;resizable=0;points=[];fontFamily=Ubuntu, Misans;fontStyle=1;rounded=0;sketch=1;" vertex="1" connectable="0" parent="NCSR_X6Gh6KwO2x8WgRi-5">
          <mxGeometry x="-0.234" y="-4" relative="1" as="geometry">
            <mxPoint y="-12.5" as="offset" />
          </mxGeometry>
        </mxCell>
        <mxCell id="NCSR_X6Gh6KwO2x8WgRi-7" value="Y" style="edgeLabel;html=1;align=center;verticalAlign=middle;resizable=0;points=[];fontFamily=Ubuntu, Misans;fontStyle=1;rounded=0;sketch=1;" vertex="1" connectable="0" parent="NCSR_X6Gh6KwO2x8WgRi-5">
          <mxGeometry x="-0.234" y="-4" relative="1" as="geometry">
            <mxPoint x="-248.18" y="252.5" as="offset" />
          </mxGeometry>
        </mxCell>
        <mxCell id="NCSR_X6Gh6KwO2x8WgRi-8" value="Y" style="edgeLabel;html=1;align=center;verticalAlign=middle;resizable=0;points=[];fontFamily=Ubuntu, Misans;fontStyle=1;rounded=0;sketch=1;" vertex="1" connectable="0" parent="NCSR_X6Gh6KwO2x8WgRi-5">
          <mxGeometry x="-0.234" y="-4" relative="1" as="geometry">
            <mxPoint x="-356.18" y="133.5" as="offset" />
          </mxGeometry>
        </mxCell>
        <mxCell id="NCSR_X6Gh6KwO2x8WgRi-9" value="Y" style="edgeLabel;html=1;align=center;verticalAlign=middle;resizable=0;points=[];fontFamily=Ubuntu, Misans;fontStyle=1;rounded=0;sketch=1;" vertex="1" connectable="0" parent="NCSR_X6Gh6KwO2x8WgRi-5">
          <mxGeometry x="-0.234" y="-4" relative="1" as="geometry">
            <mxPoint x="-402.18" y="84.5" as="offset" />
          </mxGeometry>
        </mxCell>
        <mxCell id="NCSR_X6Gh6KwO2x8WgRi-10" value="&lt;b&gt;Y&lt;/b&gt;" style="edgeLabel;html=1;align=center;verticalAlign=middle;resizable=0;points=[];fontFamily=Ubuntu, Misans;rounded=0;sketch=1;" vertex="1" connectable="0" parent="NCSR_X6Gh6KwO2x8WgRi-5">
          <mxGeometry x="-0.234" y="-4" relative="1" as="geometry">
            <mxPoint x="-156.18" y="364.5" as="offset" />
          </mxGeometry>
        </mxCell>
        <mxCell id="NCSR_X6Gh6KwO2x8WgRi-11" value="" style="edgeStyle=orthogonalEdgeStyle;rounded=0;sketch=1;orthogonalLoop=1;jettySize=auto;html=1;startArrow=none;startFill=0;endArrow=classic;endFill=1;fontFamily=Ubuntu, Misans;fillColor=#e51400;strokeColor=#B20000;" edge="1" parent="adV5CvsAMjW0xJcDhVmY-1" source="NCSR_X6Gh6KwO2x8WgRi-12" target="NCSR_X6Gh6KwO2x8WgRi-16">
          <mxGeometry relative="1" as="geometry" />
        </mxCell>
        <mxCell id="NCSR_X6Gh6KwO2x8WgRi-12" value="查找缓存" style="ellipse;whiteSpace=wrap;html=1;shadow=0;fontFamily=Ubuntu, Misans;sketch=1;fillColor=#f5f5f5;strokeColor=#666666;fontColor=#333333;rounded=0;" vertex="1" parent="adV5CvsAMjW0xJcDhVmY-1">
          <mxGeometry x="1376" y="575" width="95" height="65" as="geometry" />
        </mxCell>
        <mxCell id="NCSR_X6Gh6KwO2x8WgRi-13" value="返回结果" style="ellipse;whiteSpace=wrap;html=1;aspect=fixed;shadow=0;sketch=1;fontFamily=Ubuntu, Misans;fillColor=#bac8d3;strokeColor=#23445d;rounded=0;" vertex="1" parent="adV5CvsAMjW0xJcDhVmY-1">
          <mxGeometry x="1577" y="574" width="67" height="67" as="geometry" />
        </mxCell>
        <mxCell id="NCSR_X6Gh6KwO2x8WgRi-14" value="" style="edgeStyle=orthogonalEdgeStyle;rounded=0;sketch=1;orthogonalLoop=1;jettySize=auto;html=1;startArrow=none;startFill=0;endArrow=classic;endFill=1;fontFamily=Ubuntu, Misans;fillColor=#e51400;strokeColor=#B20000;" edge="1" parent="adV5CvsAMjW0xJcDhVmY-1" source="NCSR_X6Gh6KwO2x8WgRi-16" target="NCSR_X6Gh6KwO2x8WgRi-19">
          <mxGeometry relative="1" as="geometry" />
        </mxCell>
        <mxCell id="NCSR_X6Gh6KwO2x8WgRi-15" value="" style="edgeStyle=orthogonalEdgeStyle;rounded=0;sketch=1;orthogonalLoop=1;jettySize=auto;html=1;startArrow=none;startFill=0;endArrow=classic;endFill=1;fontFamily=Ubuntu, Misans;fillColor=#1ba1e2;strokeColor=#006EAF;" edge="1" parent="adV5CvsAMjW0xJcDhVmY-1" source="NCSR_X6Gh6KwO2x8WgRi-16" target="NCSR_X6Gh6KwO2x8WgRi-47">
          <mxGeometry relative="1" as="geometry" />
        </mxCell>
        <mxCell id="NCSR_X6Gh6KwO2x8WgRi-16" value="应用程序类加载器" style="whiteSpace=wrap;html=1;shadow=0;fontFamily=Ubuntu, Misans;sketch=1;fillColor=#ffe6cc;strokeColor=#d79b00;rounded=0;" vertex="1" parent="adV5CvsAMjW0xJcDhVmY-1">
          <mxGeometry x="1377.5" y="727" width="92.5" height="56.5" as="geometry" />
        </mxCell>
        <mxCell id="NCSR_X6Gh6KwO2x8WgRi-17" value="" style="edgeStyle=orthogonalEdgeStyle;rounded=0;sketch=1;orthogonalLoop=1;jettySize=auto;html=1;startArrow=none;startFill=0;endArrow=classic;endFill=1;fontFamily=Ubuntu, Misans;fillColor=#e51400;strokeColor=#B20000;" edge="1" parent="adV5CvsAMjW0xJcDhVmY-1" source="NCSR_X6Gh6KwO2x8WgRi-19" target="NCSR_X6Gh6KwO2x8WgRi-20">
          <mxGeometry relative="1" as="geometry" />
        </mxCell>
        <mxCell id="NCSR_X6Gh6KwO2x8WgRi-18" value="" style="edgeStyle=orthogonalEdgeStyle;rounded=0;sketch=1;orthogonalLoop=1;jettySize=auto;html=1;startArrow=none;startFill=0;endArrow=classic;endFill=1;fontFamily=Ubuntu, Misans;fillColor=#e51400;strokeColor=#B20000;" edge="1" parent="adV5CvsAMjW0xJcDhVmY-1" source="NCSR_X6Gh6KwO2x8WgRi-19" target="NCSR_X6Gh6KwO2x8WgRi-25">
          <mxGeometry relative="1" as="geometry" />
        </mxCell>
        <mxCell id="NCSR_X6Gh6KwO2x8WgRi-19" value="查找缓存" style="ellipse;whiteSpace=wrap;html=1;shadow=0;fontFamily=Ubuntu, Misans;sketch=1;fillColor=#f5f5f5;strokeColor=#666666;fontColor=#333333;rounded=0;" vertex="1" parent="adV5CvsAMjW0xJcDhVmY-1">
          <mxGeometry x="1529" y="722.75" width="95" height="65" as="geometry" />
        </mxCell>
        <mxCell id="NCSR_X6Gh6KwO2x8WgRi-20" value="返回结果" style="ellipse;whiteSpace=wrap;html=1;aspect=fixed;shadow=0;sketch=1;fontFamily=Ubuntu, Misans;fillColor=#bac8d3;strokeColor=#23445d;rounded=0;" vertex="1" parent="adV5CvsAMjW0xJcDhVmY-1">
          <mxGeometry x="1689" y="721.75" width="67" height="67" as="geometry" />
        </mxCell>
        <mxCell id="NCSR_X6Gh6KwO2x8WgRi-21" value="Y" style="text;html=1;align=center;verticalAlign=middle;resizable=0;points=[];autosize=1;fontFamily=Ubuntu, Misans;fontStyle=1;rounded=0;sketch=1;" vertex="1" parent="adV5CvsAMjW0xJcDhVmY-1">
          <mxGeometry x="1642" y="732" width="26" height="26" as="geometry" />
        </mxCell>
        <mxCell id="NCSR_X6Gh6KwO2x8WgRi-22" value="N" style="text;html=1;align=center;verticalAlign=middle;resizable=0;points=[];autosize=1;fontFamily=Ubuntu, Misans;fontStyle=1;rounded=0;sketch=1;" vertex="1" parent="adV5CvsAMjW0xJcDhVmY-1">
          <mxGeometry x="1423" y="669" width="27" height="26" as="geometry" />
        </mxCell>
        <mxCell id="NCSR_X6Gh6KwO2x8WgRi-23" value="" style="edgeStyle=orthogonalEdgeStyle;rounded=0;sketch=1;orthogonalLoop=1;jettySize=auto;html=1;startArrow=none;startFill=0;endArrow=classic;endFill=1;fontFamily=Ubuntu, Misans;fillColor=#e51400;strokeColor=#B20000;" edge="1" parent="adV5CvsAMjW0xJcDhVmY-1" source="NCSR_X6Gh6KwO2x8WgRi-25" target="NCSR_X6Gh6KwO2x8WgRi-33">
          <mxGeometry relative="1" as="geometry" />
        </mxCell>
        <mxCell id="NCSR_X6Gh6KwO2x8WgRi-24" value="" style="edgeStyle=orthogonalEdgeStyle;rounded=0;sketch=1;orthogonalLoop=1;jettySize=auto;html=1;startArrow=none;startFill=0;endArrow=classic;endFill=1;fontFamily=Ubuntu, Misans;fillColor=#1ba1e2;strokeColor=#006EAF;" edge="1" parent="adV5CvsAMjW0xJcDhVmY-1" source="NCSR_X6Gh6KwO2x8WgRi-25" target="NCSR_X6Gh6KwO2x8WgRi-44">
          <mxGeometry relative="1" as="geometry" />
        </mxCell>
        <mxCell id="NCSR_X6Gh6KwO2x8WgRi-25" value="扩展类加载器" style="whiteSpace=wrap;html=1;shadow=0;fontFamily=Ubuntu, Misans;sketch=1;fillColor=#f8cecc;strokeColor=#b85450;rounded=0;" vertex="1" parent="adV5CvsAMjW0xJcDhVmY-1">
          <mxGeometry x="1531" y="852" width="90.5" height="56.5" as="geometry" />
        </mxCell>
        <mxCell id="NCSR_X6Gh6KwO2x8WgRi-26" value="N" style="text;html=1;align=center;verticalAlign=middle;resizable=0;points=[];autosize=1;fontFamily=Ubuntu, Misans;fontStyle=1;rounded=0;sketch=1;" vertex="1" parent="adV5CvsAMjW0xJcDhVmY-1">
          <mxGeometry x="1577.5" y="803" width="27" height="26" as="geometry" />
        </mxCell>
        <mxCell id="NCSR_X6Gh6KwO2x8WgRi-27" value="返回结果" style="ellipse;whiteSpace=wrap;html=1;aspect=fixed;shadow=0;sketch=1;fontFamily=Ubuntu, Misans;fillColor=#bac8d3;strokeColor=#23445d;rounded=0;" vertex="1" parent="adV5CvsAMjW0xJcDhVmY-1">
          <mxGeometry x="1836" y="846.75" width="67" height="67" as="geometry" />
        </mxCell>
        <mxCell id="NCSR_X6Gh6KwO2x8WgRi-28" value="" style="edgeStyle=orthogonalEdgeStyle;rounded=0;sketch=1;orthogonalLoop=1;jettySize=auto;html=1;startArrow=none;startFill=0;endArrow=classic;endFill=1;fontFamily=Ubuntu, Misans;fillColor=#e51400;strokeColor=#B20000;" edge="1" parent="adV5CvsAMjW0xJcDhVmY-1" source="NCSR_X6Gh6KwO2x8WgRi-30" target="NCSR_X6Gh6KwO2x8WgRi-37">
          <mxGeometry relative="1" as="geometry" />
        </mxCell>
        <mxCell id="NCSR_X6Gh6KwO2x8WgRi-29" value="" style="edgeStyle=orthogonalEdgeStyle;rounded=0;sketch=1;orthogonalLoop=1;jettySize=auto;html=1;startArrow=none;startFill=0;endArrow=classic;endFill=1;fontFamily=Ubuntu, Misans;fillColor=#1ba1e2;strokeColor=#006EAF;" edge="1" parent="adV5CvsAMjW0xJcDhVmY-1" source="NCSR_X6Gh6KwO2x8WgRi-30" target="NCSR_X6Gh6KwO2x8WgRi-57">
          <mxGeometry relative="1" as="geometry" />
        </mxCell>
        <mxCell id="NCSR_X6Gh6KwO2x8WgRi-30" value="启动类加载器" style="whiteSpace=wrap;html=1;shadow=0;fontFamily=Ubuntu, Misans;sketch=1;fillColor=#e1d5e7;strokeColor=#9673a6;rounded=0;" vertex="1" parent="adV5CvsAMjW0xJcDhVmY-1">
          <mxGeometry x="1681.5" y="962" width="92.5" height="56.5" as="geometry" />
        </mxCell>
        <mxCell id="NCSR_X6Gh6KwO2x8WgRi-31" value="" style="edgeStyle=orthogonalEdgeStyle;rounded=0;sketch=1;orthogonalLoop=1;jettySize=auto;html=1;startArrow=none;startFill=0;endArrow=classic;endFill=1;fontFamily=Ubuntu, Misans;fillColor=#e51400;strokeColor=#B20000;" edge="1" parent="adV5CvsAMjW0xJcDhVmY-1" source="NCSR_X6Gh6KwO2x8WgRi-33" target="NCSR_X6Gh6KwO2x8WgRi-27">
          <mxGeometry relative="1" as="geometry" />
        </mxCell>
        <mxCell id="NCSR_X6Gh6KwO2x8WgRi-32" value="" style="edgeStyle=orthogonalEdgeStyle;rounded=0;sketch=1;orthogonalLoop=1;jettySize=auto;html=1;startArrow=none;startFill=0;endArrow=classic;endFill=1;fontFamily=Ubuntu, Misans;fillColor=#e51400;strokeColor=#B20000;" edge="1" parent="adV5CvsAMjW0xJcDhVmY-1" source="NCSR_X6Gh6KwO2x8WgRi-33" target="NCSR_X6Gh6KwO2x8WgRi-30">
          <mxGeometry relative="1" as="geometry" />
        </mxCell>
        <mxCell id="NCSR_X6Gh6KwO2x8WgRi-33" value="查找缓存" style="ellipse;whiteSpace=wrap;html=1;shadow=0;fontFamily=Ubuntu, Misans;sketch=1;fillColor=#f5f5f5;strokeColor=#666666;fontColor=#333333;rounded=0;" vertex="1" parent="adV5CvsAMjW0xJcDhVmY-1">
          <mxGeometry x="1680" y="847.75" width="95" height="65" as="geometry" />
        </mxCell>
        <mxCell id="NCSR_X6Gh6KwO2x8WgRi-34" value="Y" style="text;html=1;align=center;verticalAlign=middle;resizable=0;points=[];autosize=1;fontFamily=Ubuntu, Misans;fontStyle=1;rounded=0;sketch=1;" vertex="1" parent="adV5CvsAMjW0xJcDhVmY-1">
          <mxGeometry x="1790" y="851" width="26" height="26" as="geometry" />
        </mxCell>
        <mxCell id="NCSR_X6Gh6KwO2x8WgRi-35" value="N" style="text;html=1;align=center;verticalAlign=middle;resizable=0;points=[];autosize=1;fontFamily=Ubuntu, Misans;fontStyle=1;rounded=0;sketch=1;" vertex="1" parent="adV5CvsAMjW0xJcDhVmY-1">
          <mxGeometry x="1728.5" y="922" width="27" height="26" as="geometry" />
        </mxCell>
        <mxCell id="NCSR_X6Gh6KwO2x8WgRi-36" style="edgeStyle=orthogonalEdgeStyle;rounded=0;sketch=1;orthogonalLoop=1;jettySize=auto;html=1;entryX=0.5;entryY=1;entryDx=0;entryDy=0;startArrow=none;startFill=0;endArrow=classic;endFill=1;fontFamily=Ubuntu, Misans;exitX=0.5;exitY=1;exitDx=0;exitDy=0;fillColor=#e51400;strokeColor=#B20000;" edge="1" parent="adV5CvsAMjW0xJcDhVmY-1" source="NCSR_X6Gh6KwO2x8WgRi-37" target="NCSR_X6Gh6KwO2x8WgRi-30">
          <mxGeometry relative="1" as="geometry">
            <Array as="points">
              <mxPoint x="1878" y="1085" />
              <mxPoint x="1728" y="1085" />
            </Array>
          </mxGeometry>
        </mxCell>
        <mxCell id="NCSR_X6Gh6KwO2x8WgRi-37" value="查找缓存" style="ellipse;whiteSpace=wrap;html=1;shadow=0;fontFamily=Ubuntu, Misans;sketch=1;fillColor=#f5f5f5;strokeColor=#666666;fontColor=#333333;rounded=0;" vertex="1" parent="adV5CvsAMjW0xJcDhVmY-1">
          <mxGeometry x="1830" y="958" width="95" height="65" as="geometry" />
        </mxCell>
        <mxCell id="NCSR_X6Gh6KwO2x8WgRi-38" value="Y" style="text;html=1;align=center;verticalAlign=middle;resizable=0;points=[];autosize=1;fontFamily=Ubuntu, Misans;fontStyle=1;rounded=0;sketch=1;" vertex="1" parent="adV5CvsAMjW0xJcDhVmY-1">
          <mxGeometry x="1940" y="959.25" width="26" height="26" as="geometry" />
        </mxCell>
        <mxCell id="NCSR_X6Gh6KwO2x8WgRi-39" value="返回结果" style="ellipse;whiteSpace=wrap;html=1;aspect=fixed;shadow=0;sketch=1;fontFamily=Ubuntu, Misans;fillColor=#bac8d3;strokeColor=#23445d;rounded=0;" vertex="1" parent="adV5CvsAMjW0xJcDhVmY-1">
          <mxGeometry x="1986" y="955" width="67" height="67" as="geometry" />
        </mxCell>
        <mxCell id="NCSR_X6Gh6KwO2x8WgRi-40" value="" style="edgeStyle=orthogonalEdgeStyle;rounded=0;sketch=1;orthogonalLoop=1;jettySize=auto;html=1;startArrow=none;startFill=0;endArrow=classic;endFill=1;fontFamily=Ubuntu, Misans;fillColor=#e51400;strokeColor=#B20000;" edge="1" parent="adV5CvsAMjW0xJcDhVmY-1" target="NCSR_X6Gh6KwO2x8WgRi-39">
          <mxGeometry relative="1" as="geometry">
            <mxPoint x="1925" y="988.5" as="sourcePoint" />
          </mxGeometry>
        </mxCell>
        <mxCell id="NCSR_X6Gh6KwO2x8WgRi-41" value="N" style="text;html=1;align=center;verticalAlign=middle;resizable=0;points=[];autosize=1;fontFamily=Ubuntu, Misans;fontStyle=1;rounded=0;sketch=1;" vertex="1" parent="adV5CvsAMjW0xJcDhVmY-1">
          <mxGeometry x="1787" y="1062" width="27" height="26" as="geometry" />
        </mxCell>
        <mxCell id="NCSR_X6Gh6KwO2x8WgRi-42" value="" style="edgeStyle=orthogonalEdgeStyle;rounded=0;sketch=1;orthogonalLoop=1;jettySize=auto;html=1;startArrow=none;startFill=0;endArrow=classic;endFill=1;fontFamily=Ubuntu, Misans;" edge="1" parent="adV5CvsAMjW0xJcDhVmY-1" source="NCSR_X6Gh6KwO2x8WgRi-44" target="NCSR_X6Gh6KwO2x8WgRi-16">
          <mxGeometry relative="1" as="geometry" />
        </mxCell>
        <mxCell id="NCSR_X6Gh6KwO2x8WgRi-43" style="edgeStyle=orthogonalEdgeStyle;rounded=0;sketch=1;orthogonalLoop=1;jettySize=auto;html=1;entryX=1;entryY=0.5;entryDx=0;entryDy=0;startArrow=none;startFill=0;endArrow=classic;endFill=1;fontFamily=Ubuntu, Misans;fillColor=#1ba1e2;strokeColor=#006EAF;" edge="1" parent="adV5CvsAMjW0xJcDhVmY-1" source="NCSR_X6Gh6KwO2x8WgRi-44" target="NCSR_X6Gh6KwO2x8WgRi-49">
          <mxGeometry relative="1" as="geometry" />
        </mxCell>
        <mxCell id="NCSR_X6Gh6KwO2x8WgRi-44" value="查找类并加载" style="rhombus;whiteSpace=wrap;html=1;shadow=0;fontFamily=Ubuntu, Misans;sketch=1;fillColor=#b0e3e6;strokeColor=#0e8088;rounded=0;" vertex="1" parent="adV5CvsAMjW0xJcDhVmY-1">
          <mxGeometry x="1376" y="843.5" width="96.5" height="74.25" as="geometry" />
        </mxCell>
        <mxCell id="NCSR_X6Gh6KwO2x8WgRi-45" value="" style="edgeStyle=orthogonalEdgeStyle;rounded=0;sketch=1;orthogonalLoop=1;jettySize=auto;html=1;startArrow=none;startFill=0;endArrow=classic;endFill=1;fontFamily=Ubuntu, Misans;fillColor=#1ba1e2;strokeColor=#006EAF;" edge="1" parent="adV5CvsAMjW0xJcDhVmY-1" source="NCSR_X6Gh6KwO2x8WgRi-47" target="NCSR_X6Gh6KwO2x8WgRi-4">
          <mxGeometry relative="1" as="geometry" />
        </mxCell>
        <mxCell id="NCSR_X6Gh6KwO2x8WgRi-46" style="edgeStyle=orthogonalEdgeStyle;rounded=0;sketch=1;orthogonalLoop=1;jettySize=auto;html=1;entryX=0.5;entryY=0;entryDx=0;entryDy=0;startArrow=none;startFill=0;endArrow=classic;endFill=1;fontFamily=Ubuntu, Misans;fillColor=#1ba1e2;strokeColor=#006EAF;" edge="1" parent="adV5CvsAMjW0xJcDhVmY-1" source="NCSR_X6Gh6KwO2x8WgRi-47" target="NCSR_X6Gh6KwO2x8WgRi-49">
          <mxGeometry relative="1" as="geometry" />
        </mxCell>
        <mxCell id="NCSR_X6Gh6KwO2x8WgRi-47" value="查找类并加载" style="rhombus;whiteSpace=wrap;html=1;shadow=0;fontFamily=Ubuntu, Misans;sketch=1;fillColor=#b0e3e6;strokeColor=#0e8088;rounded=0;" vertex="1" parent="adV5CvsAMjW0xJcDhVmY-1">
          <mxGeometry x="1220" y="718.1300000000001" width="96.5" height="74.25" as="geometry" />
        </mxCell>
        <mxCell id="NCSR_X6Gh6KwO2x8WgRi-48" value="N" style="text;html=1;align=center;verticalAlign=middle;resizable=0;points=[];autosize=1;fontFamily=Ubuntu, Misans;fontStyle=1;rounded=0;sketch=1;" vertex="1" parent="adV5CvsAMjW0xJcDhVmY-1">
          <mxGeometry x="1271" y="672" width="27" height="26" as="geometry" />
        </mxCell>
        <mxCell id="NCSR_X6Gh6KwO2x8WgRi-49" value="返回结果" style="ellipse;whiteSpace=wrap;html=1;aspect=fixed;shadow=0;sketch=1;fontFamily=Ubuntu, Misans;rounded=0;" vertex="1" parent="adV5CvsAMjW0xJcDhVmY-1">
          <mxGeometry x="1084.75" y="840.75" width="80" height="80" as="geometry" />
        </mxCell>
        <mxCell id="NCSR_X6Gh6KwO2x8WgRi-50" value="" style="edgeStyle=orthogonalEdgeStyle;rounded=0;sketch=1;orthogonalLoop=1;jettySize=auto;html=1;startArrow=none;startFill=0;endArrow=classic;endFill=1;fontFamily=Ubuntu, Misans;fillColor=#1ba1e2;strokeColor=#006EAF;" edge="1" parent="adV5CvsAMjW0xJcDhVmY-1" source="NCSR_X6Gh6KwO2x8WgRi-52" target="NCSR_X6Gh6KwO2x8WgRi-53">
          <mxGeometry relative="1" as="geometry" />
        </mxCell>
        <mxCell id="NCSR_X6Gh6KwO2x8WgRi-51" style="edgeStyle=orthogonalEdgeStyle;rounded=0;sketch=1;orthogonalLoop=1;jettySize=auto;html=1;startArrow=none;startFill=0;endArrow=classic;endFill=1;fontFamily=Ubuntu, Misans;fillColor=#1ba1e2;strokeColor=#006EAF;" edge="1" parent="adV5CvsAMjW0xJcDhVmY-1" source="NCSR_X6Gh6KwO2x8WgRi-52">
          <mxGeometry relative="1" as="geometry">
            <mxPoint x="1125" y="837" as="targetPoint" />
            <Array as="points">
              <mxPoint x="1125" y="837" />
              <mxPoint x="1125" y="837" />
            </Array>
          </mxGeometry>
        </mxCell>
        <mxCell id="NCSR_X6Gh6KwO2x8WgRi-52" value="查找类并加载" style="rhombus;whiteSpace=wrap;html=1;shadow=0;fontFamily=Ubuntu, Misans;sketch=1;fillColor=#b0e3e6;strokeColor=#0e8088;rounded=0;" vertex="1" parent="adV5CvsAMjW0xJcDhVmY-1">
          <mxGeometry x="1076.5" y="570.3700000000001" width="96.5" height="74.25" as="geometry" />
        </mxCell>
        <mxCell id="NCSR_X6Gh6KwO2x8WgRi-53" value="Class Not Found Exception" style="whiteSpace=wrap;html=1;shadow=0;fontFamily=Ubuntu, Misans;sketch=1;gradientColor=#97d077;fillColor=#d5e8d4;strokeColor=#82b366;rounded=0;" vertex="1" parent="adV5CvsAMjW0xJcDhVmY-1">
          <mxGeometry x="927" y="577.5" width="89" height="59.5" as="geometry" />
        </mxCell>
        <mxCell id="NCSR_X6Gh6KwO2x8WgRi-54" value="N" style="text;html=1;align=center;verticalAlign=middle;resizable=0;points=[];autosize=1;fontFamily=Ubuntu, Misans;fontStyle=1;rounded=0;sketch=1;" vertex="1" parent="adV5CvsAMjW0xJcDhVmY-1">
          <mxGeometry x="1034" y="585" width="27" height="26" as="geometry" />
        </mxCell>
        <mxCell id="NCSR_X6Gh6KwO2x8WgRi-55" value="" style="edgeStyle=orthogonalEdgeStyle;rounded=0;sketch=1;orthogonalLoop=1;jettySize=auto;html=1;startArrow=none;startFill=0;endArrow=classic;endFill=1;fontFamily=Ubuntu, Misans;entryX=0.5;entryY=1;entryDx=0;entryDy=0;fillColor=#1ba1e2;strokeColor=#006EAF;" edge="1" parent="adV5CvsAMjW0xJcDhVmY-1" source="NCSR_X6Gh6KwO2x8WgRi-57" target="NCSR_X6Gh6KwO2x8WgRi-25">
          <mxGeometry relative="1" as="geometry" />
        </mxCell>
        <mxCell id="NCSR_X6Gh6KwO2x8WgRi-56" style="edgeStyle=orthogonalEdgeStyle;rounded=0;sketch=1;orthogonalLoop=1;jettySize=auto;html=1;entryX=0.5;entryY=1;entryDx=0;entryDy=0;startArrow=none;startFill=0;endArrow=classic;endFill=1;fontFamily=Ubuntu, Misans;fillColor=#1ba1e2;strokeColor=#006EAF;" edge="1" parent="adV5CvsAMjW0xJcDhVmY-1" source="NCSR_X6Gh6KwO2x8WgRi-57" target="NCSR_X6Gh6KwO2x8WgRi-49">
          <mxGeometry relative="1" as="geometry" />
        </mxCell>
        <mxCell id="NCSR_X6Gh6KwO2x8WgRi-57" value="查找类并加载" style="rhombus;whiteSpace=wrap;html=1;shadow=0;fontFamily=Ubuntu, Misans;sketch=1;fillColor=#b0e3e6;strokeColor=#0e8088;rounded=0;" vertex="1" parent="adV5CvsAMjW0xJcDhVmY-1">
          <mxGeometry x="1528" y="953.3699999999999" width="96.5" height="74.25" as="geometry" />
        </mxCell>
        <mxCell id="NCSR_X6Gh6KwO2x8WgRi-58" value="N" style="text;html=1;align=center;verticalAlign=middle;resizable=0;points=[];autosize=1;fontFamily=Ubuntu, Misans;fontStyle=1;rounded=0;sketch=1;" vertex="1" parent="adV5CvsAMjW0xJcDhVmY-1">
          <mxGeometry x="1577.5" y="922" width="27" height="26" as="geometry" />
        </mxCell>
        <mxCell id="NCSR_X6Gh6KwO2x8WgRi-59" value="N" style="text;html=1;align=center;verticalAlign=middle;resizable=0;points=[];autosize=1;fontFamily=Ubuntu, Misans;fontStyle=1;rounded=0;sketch=1;" vertex="1" parent="adV5CvsAMjW0xJcDhVmY-1">
          <mxGeometry x="1423.5" y="807" width="27" height="26" as="geometry" />
        </mxCell>
        <mxCell id="NCSR_X6Gh6KwO2x8WgRi-60" value="&lt;font face=&quot;Misans&quot; style=&quot;font-size: 20px;&quot;&gt;双亲委派详细过程&lt;/font&gt;" style="text;html=1;align=center;verticalAlign=middle;resizable=0;points=[];autosize=1;strokeColor=none;fillColor=none;" vertex="1" parent="adV5CvsAMjW0xJcDhVmY-1">
          <mxGeometry x="1195.5" y="365" width="178" height="36" as="geometry" />
        </mxCell>
      </root>
    </mxGraphModel>
  </diagram>
  <diagram id="MqkuYbEGfG_jR5zixAnq" name="第 3 页">
    <mxGraphModel dx="1490" dy="622" grid="1" gridSize="10" guides="1" tooltips="1" connect="1" arrows="1" fold="1" page="1" pageScale="1" pageWidth="827" pageHeight="1169" math="0" shadow="0">
      <root>
        <mxCell id="xtyXqRVk-PnW3hRuuDRi-0" />
        <mxCell id="xtyXqRVk-PnW3hRuuDRi-1" parent="xtyXqRVk-PnW3hRuuDRi-0" />
      </root>
    </mxGraphModel>
  </diagram>
  <diagram id="jmOSY4i7V1LotajW3Ala" name="第 4 页">
    <mxGraphModel dx="1024" dy="601" grid="1" gridSize="10" guides="1" tooltips="1" connect="1" arrows="1" fold="1" page="1" pageScale="1" pageWidth="827" pageHeight="1169" math="0" shadow="0">
      <root>
        <mxCell id="2OpJl9oUnFoMBBRFdoGu-0" />
        <mxCell id="2OpJl9oUnFoMBBRFdoGu-1" parent="2OpJl9oUnFoMBBRFdoGu-0" />
      </root>
    </mxGraphModel>
  </diagram>
  <diagram id="aIZLR9STIWIXhv7IKFco" name="第 5 页">
    <mxGraphModel dx="1024" dy="601" grid="1" gridSize="10" guides="1" tooltips="1" connect="1" arrows="1" fold="1" page="1" pageScale="1" pageWidth="827" pageHeight="1169" math="0" shadow="0">
      <root>
        <mxCell id="GP9yqx8o7feRjyIGmEGT-0" />
        <mxCell id="GP9yqx8o7feRjyIGmEGT-1" parent="GP9yqx8o7feRjyIGmEGT-0" />
      </root>
    </mxGraphModel>
  </diagram>
</mxfile>
